# xmcd CD database file generated by OrangeCD 4.2
#
# Track frame offsets:
#	150
#	16940
#	35340
#	53407
#	68397
#	86347
#	105492
#	121725
#	137540
#	155660
#	170220
#	185970
#
# Disc length: 2744 seconds
#
# Revision: 3
# Processed by: cddbd v1.4PL0 Copyright (c) Steve Scherf et al.
# Submitted via: OrangeCD 4.2
#
DISCID=910ab60c
DTITLE=Jessica Andrews - Who I Am
DYEAR=2001
DGENRE=Country
TTITLE0=Now I Know
TTITLE1=Every Time
TTITLE2=I Don't Like Anyone
TTITLE3=Karma
TTITLE4=Helplessly, Hopelessly
TTITLE5=Who Am I
TTITLE6=These Wings
TTITLE7=Never Had It So Good
TTITLE8=Make Me Love You
TTITLE9=Wishing Well
TTITLE10=Good Friend To Me
TTITLE11=Show Me Heaven
EXTD=
EXTT0=
EXTT1=
EXTT2=
EXTT3=
EXTT4=
EXTT5=
EXTT6=
EXTT7=
EXTT8=
EXTT9=
EXTT10=
EXTT11=
PLAYORDER=
